<svg xmlns="http://www.w3.org/2000/svg" width="34.186" height="40.153" viewBox="0 0 34.186 40.153">
  <path id="icons8_contacts" d="M20.093,2C14.444,2,9.837,6.919,9.837,12.951S14.444,23.9,20.093,23.9s10.256-4.919,10.256-10.951S25.742,2,20.093,2Zm0,21.9C10.678,23.9,3,32.1,3,42.153H6.419c0-8.085,6.1-14.6,13.674-14.6s13.674,6.516,13.674,14.6h3.419C37.186,32.1,29.507,23.9,20.093,23.9Zm0-18.251a7.059,7.059,0,0,1,6.837,7.3,7.058,7.058,0,0,1-6.837,7.3,7.059,7.059,0,0,1-6.837-7.3A7.059,7.059,0,0,1,20.093,5.65Z" transform="translate(-3 -2)" fill="#5b5b5b"/>
</svg>
